# xmcd CD database file
#
# Track frame offsets:
#	150
#	13319
#	24998
#	38070
#	51335
#	59938
#	70712
#	76854
#	91023
#	101928
#	115895
#	135413
#	148006
#	162972
#	178295
#	192776
#	195281
#	207969
#	218283
#	232120
#	245293
#	257877
#	266930
#	277498
#	288670
#	297269
#	307693
#	322625
#	326936
#	338251
#	348842
#
# Disc length: 4738 seconds
#
# Revision: 0
# Processed by: cddbd v1.5.2PL0 Copyright (c) Steve Scherf et al.
# Submitted via: CDex 1.70beta2
#
DISCID=d112801f
DTITLE=Jiří Traxler - Hold Jiřímu Traxlerovi
DYEAR=2007
DGENRE=Jazz
TTITLE0=Jedu nocí
TTITLE1=Veselá násobilka
TTITLE2=Jak jsem se dostal k hudbě
TTITLE3=Růžové brýle
TTITLE4=Vzpomínka na Gramoklub I.
TTITLE5=Short Story
TTITLE6=Vzpominka na Gramoklub II.
TTITLE7=Feelin' Low
TTITLE8=Setkání s J. Ježkem a R. A. Dvorským
TTITLE9=Full Moon's Music
TTITLE10=Moje spolupráce s J. Ježkem
TTITLE11=Noisy serenade
TTITLE12=Vzpomínka na R. A. Dvorského I.
TTITLE13=Ztratil jsem tvůj smích
TTITLE14=Potkal jsem svůj sen
TTITLE15=Vzpomínka na R. A. Dvorského II.
TTITLE16=Patience
TTITLE17=Vzpomínka na K. Vlacha
TTITLE18=Klíče k ráji
TTITLE19=Náhodou
TTITLE20=Bláznivý den
TTITLE21=Jak jsem žil I.
TTITLE22=To si pamatuj
TTITLE23=Konec týdne
TTITLE24=Jak jsem žil II.
TTITLE25=Divoký vítr
TTITLE26=Opona padá
TTITLE27=Happy Birthday, Mr. Traxler!
TTITLE28=Peter, Peter
TTITLE29=Georgia On My Mind
TTITLE30=Star Dust
EXTD=YEAR: 2007
EXTT0=
EXTT1=
EXTT2=
EXTT3=
EXTT4=
EXTT5=
EXTT6=
EXTT7=
EXTT8=
EXTT9=
EXTT10=
EXTT11=
EXTT12=
EXTT13=
EXTT14=
EXTT15=
EXTT16=
EXTT17=
EXTT18=
EXTT19=
EXTT20=
EXTT21=
EXTT22=
EXTT23=
EXTT24=
EXTT25=
EXTT26=
EXTT27=
EXTT28=
EXTT29=
EXTT30=
PLAYORDER=
